HIERARCHY
ROOT Hips
{
	OFFSET -0.001795 -0.223333 0.028219
	CHANNELS 6 Xposition Yposition Zposition Zrotation Yrotation Xrotation 
	JOINT LeftUpLeg
	{
		OFFSET 0.069520 -0.091406 -0.006815
		CHANNELS 3 Zrotation Yrotation Xrotation
		JOINT LeftLeg
		{
			OFFSET 0.034277 -0.375199 -0.004496
			CHANNELS 3 Zrotation Yrotation Xrotation
			JOINT LeftFoot
			{
				OFFSET -0.013596 -0.397961 -0.043693
				CHANNELS 3 Zrotation Yrotation Xrotation
				JOINT LeftToe
				{
					OFFSET 0.026358 -0.055791 0.119288
					CHANNELS 3 Zrotation Yrotation Xrotation
					End Site
					{
						OFFSET 0.000000 0.000000 0.000000
					}
				}
			}
		}
	}
	JOINT RightUpLeg
	{
		OFFSET -0.067670 -0.090522 -0.004320
		CHANNELS 3 Zrotation Yrotation Xrotation
		JOINT RightLeg
		{
			OFFSET -0.038290 -0.382569 -0.008850
			CHANNELS 3 Zrotation Yrotation Xrotation
			JOINT RightFoot
			{
				OFFSET 0.015774 -0.398415 -0.042312
				CHANNELS 3 Zrotation Yrotation Xrotation
				JOINT RightToe
				{
					OFFSET -0.025372 -0.048144 0.123348
					CHANNELS 3 Zrotation Yrotation Xrotation
					End Site
					{
						OFFSET 0.000000 0.000000 0.000000
					}
				}
			}
		}
	}
	JOINT Spine
	{
		OFFSET -0.002533 0.108963 -0.026696
		CHANNELS 3 Zrotation Yrotation Xrotation
		JOINT Spine1
		{
			OFFSET 0.005487 0.135180 0.001092
			CHANNELS 3 Zrotation Yrotation Xrotation
			JOINT Spine2
			{
				OFFSET 0.001457 0.052922 0.025425
				CHANNELS 3 Zrotation Yrotation Xrotation
				JOINT Neck
				{
					OFFSET -0.002778 0.213870 -0.042857
					CHANNELS 3 Zrotation Yrotation Xrotation
					JOINT Head
					{
						OFFSET 0.005152 0.064970 0.051349
						CHANNELS 3 Zrotation Yrotation Xrotation
						End Site
						{
							OFFSET 0.000000 0.000000 0.000000
						}
					}
				}
				JOINT LeftShoulder
				{
					OFFSET 0.078845 0.121749 -0.034090
					CHANNELS 3 Zrotation Yrotation Xrotation
					JOINT LeftArm
					{
						OFFSET 0.090977 0.030469 -0.008868
						CHANNELS 3 Zrotation Yrotation Xrotation
						JOINT LeftForeArm
						{
							OFFSET 0.259612 -0.012772 -0.027456
							CHANNELS 3 Zrotation Yrotation Xrotation
							JOINT LeftHand
							{
								OFFSET 0.249234 0.008986 -0.001171
								CHANNELS 3 Zrotation Yrotation Xrotation
								End Site
								{
									OFFSET 0.000000 0.000000 0.000000
								}
							}
						}
					}
				}
				JOINT RightShoulder
				{
					OFFSET -0.081759 0.118833 -0.038615
					CHANNELS 3 Zrotation Yrotation Xrotation
					JOINT RightArm
					{
						OFFSET -0.096012 0.032551 -0.009143
						CHANNELS 3 Zrotation Yrotation Xrotation
						JOINT RightForeArm
						{
							OFFSET -0.253742 -0.013329 -0.021401
							CHANNELS 3 Zrotation Yrotation Xrotation
							JOINT RightHand
							{
								OFFSET -0.255298 0.007772 -0.005559
								CHANNELS 3 Zrotation Yrotation Xrotation
								End Site
								{
									OFFSET 0.000000 0.000000 0.000000
								}
							}
						}
					}
				}
			}
		}
	}
}
MOTION
Frames: 17
Frame Time: 0.050000
0.021883 0.922220 -0.164832 1.642841 -23.291134 25.324931 15.068910 3.082294 -28.787876 -3.890280 0.609540 1.300339 9.723081 16.406514 27.009099 0.000000 0.000000 0.000000 -18.269898 2.907721 -39.757211 10.704082 -0.667604 5.736984 -6.914136 -22.387222 20.904431 0.000000 0.000000 0.000000 8.777633 -1.803729 41.230140 -3.673971 1.011196 -22.554674 -4.696826 8.914611 28.484348 24.364904 -6.885622 -42.075824 0.000000 0.000000 0.000000 8.468070 -26.443774 7.842723 -33.023862 -42.182657 5.873780 31.153783 -45.331109 -10.137718 0.000000 0.000000 0.000000 -4.828297 9.450800 3.497133 14.390650 49.362475 0.096574 -33.267098 28.900996 -6.914700 0.000000 0.000000 0.000000 
0.020694 0.923549 -0.167273 1.492080 -22.925227 24.979807 15.343552 3.025516 -28.240981 -3.556748 0.550520 1.259629 9.048689 15.603027 27.108546 0.000000 0.000000 0.000000 -17.756985 2.867511 -38.826168 10.482306 -0.634534 5.180274 -6.696219 -21.979539 21.194812 0.000000 0.000000 0.000000 8.239539 -1.645236 40.912531 -3.700489 1.026706 -22.740064 -5.185612 8.315565 28.746077 24.911112 -7.481758 -41.095877 0.000000 0.000000 0.000000 9.643371 -26.428096 7.519775 -32.272241 -42.356308 5.811217 29.780305 -44.244751 -9.322779 0.000000 0.000000 0.000000 -5.081455 9.254799 3.426170 13.460127 49.348578 -0.338692 -34.079183 30.035671 -7.516795 0.000000 0.000000 0.000000 
0.019566 0.925425 -0.169620 1.095855 -22.710102 24.720577 15.747572 2.979310 -27.362041 -3.273044 0.494293 0.634650 8.680803 15.143376 27.785478 0.000000 0.000000 0.000000 -16.890316 2.923636 -38.001611 9.946276 -0.570476 4.531366 -6.374511 -21.550271 22.076086 0.000000 0.000000 0.000000 7.606053 -1.411529 40.711649 -3.576635 1.004240 -22.688618 -5.760017 7.555774 28.537056 24.978768 -7.901542 -39.916087 0.000000 0.000000 0.000000 11.243002 -26.162011 7.030941 -31.930847 -42.345998 5.918488 28.634155 -42.948122 -8.563136 0.000000 0.000000 0.000000 -5.121875 9.122108 3.391980 12.912677 49.992309 -0.605825 -34.437613 30.374383 -7.780948 0.000000 0.000000 0.000000 
0.018792 0.927332 -0.171826 0.716243 -22.602923 24.479090 15.642657 2.801017 -26.510167 -2.687572 0.398230 -0.021205 8.554012 14.975425 27.954011 0.000000 0.000000 0.000000 -16.267498 2.946739 -37.161108 9.807803 -0.535617 3.854107 -6.549289 -21.791246 22.698696 0.000000 0.000000 0.000000 6.846817 -1.108553 40.388784 -3.440269 0.984292 -22.939074 -6.033698 6.828929 28.834424 25.601697 -8.866617 -38.027993 0.000000 0.000000 0.000000 13.313834 -26.229742 6.473999 -31.396241 -42.344365 5.979642 28.197163 -40.593326 -7.894678 0.000000 0.000000 0.000000 -5.060315 9.074544 3.381448 12.915589 50.748037 -0.731670 -34.255012 31.313091 -8.078174 0.000000 0.000000 0.000000 
0.018780 0.929384 -0.174201 0.477063 -22.663339 23.990989 15.762591 2.724849 -25.713402 -2.529008 0.374818 -0.384183 8.539196 14.929188 28.557821 0.000000 0.000000 0.000000 -15.480550 2.995679 -36.246319 9.228372 -0.463139 2.904562 -6.110048 -21.231005 23.566926 0.000000 0.000000 0.000000 6.108242 -0.788284 40.052227 -3.431414 0.977481 -22.351072 -6.286440 5.886043 28.385972 25.151272 -9.244496 -36.413469 0.000000 0.000000 0.000000 15.001199 -26.115703 5.970156 -30.712622 -42.627262 6.133876 27.470105 -36.851229 -6.865237 0.000000 0.000000 0.000000 -5.172626 9.248060 3.448837 14.013247 52.316711 -0.388526 -34.193447 31.522942 -8.166953 0.000000 0.000000 0.000000 
0.019647 0.931090 -0.176928 0.171057 -22.983355 24.065581 15.748189 2.728540 -25.494095 -2.217864 0.331366 -0.679559 8.637593 14.977649 28.945450 0.000000 0.000000 0.000000 -14.953858 3.090839 -35.852837 9.161521 -0.420652 2.060524 -6.230746 -21.474130 23.899687 0.000000 0.000000 0.000000 5.609529 -0.557444 39.405976 -3.379843 0.967521 -22.581686 -6.378942 5.376420 28.838099 24.568313 -9.628168 -34.704374 0.000000 0.000000 0.000000 17.045242 -25.662988 5.257488 -29.889048 -43.555637 6.403836 26.446190 -31.672789 -5.565842 0.000000 0.000000 0.000000 -5.738258 9.117432 3.429565 14.207070 54.472815 -0.445628 -33.137982 30.924598 -7.736600 0.000000 0.000000 0.000000 
0.020860 0.933425 -0.179861 -0.182640 -22.924734 24.178182 15.722738 2.711644 -25.447239 -1.667087 0.256141 -1.110898 8.524073 14.829162 29.246554 0.000000 0.000000 0.000000 -14.580788 3.129457 -35.640610 9.046323 -0.387175 1.187260 -5.891738 -21.082148 24.812737 0.000000 0.000000 0.000000 5.145058 -0.382187 39.194430 -3.051373 0.890864 -22.292461 -6.040095 5.233125 28.458121 23.906334 -9.766400 -33.145968 0.000000 0.000000 0.000000 19.435715 -25.154245 4.566830 -29.800279 -44.859186 6.979700 25.351507 -25.942911 -4.320000 0.000000 0.000000 0.000000 -6.631206 8.830059 3.365910 16.037025 56.649321 0.466257 -32.456285 29.805933 -7.174236 0.000000 0.000000 0.000000 
0.021858 0.935150 -0.182496 -0.677105 -23.193654 24.573710 16.181116 2.895041 -25.606724 -1.651531 0.257324 -1.403769 8.521391 14.772672 29.851565 0.000000 0.000000 0.000000 -14.000751 3.254433 -35.567071 8.935611 -0.350038 0.458340 -5.645628 -20.798790 24.813842 0.000000 0.000000 0.000000 4.559617 -0.119217 38.864237 -2.798368 0.835161 -22.567971 -5.975518 5.240209 28.543998 23.165284 -10.138761 -30.820098 0.000000 0.000000 0.000000 20.737162 -24.569150 4.124009 -29.164686 -45.730895 7.149588 23.864321 -21.710430 -3.343044 0.000000 0.000000 0.000000 -6.550664 9.078072 3.454668 16.386623 57.899532 0.650169 -31.435690 28.559313 -6.551188 0.000000 0.000000 0.000000 
0.022393 0.937564 -0.184561 -0.726849 -22.509764 25.029409 16.011578 2.820119 -26.041549 -1.461292 0.236225 -1.872571 8.432088 14.781241 30.148028 0.000000 0.000000 0.000000 -13.835456 3.204586 -35.521359 8.797746 -0.334504 -0.373967 -5.582481 -20.656954 25.302069 0.000000 0.000000 0.000000 4.609668 -0.309867 38.140227 -2.428323 0.759925 -22.423133 -5.942450 5.663038 28.259359 22.967802 -10.101589 -30.324718 0.000000 0.000000 0.000000 21.143343 -24.344125 4.076093 -28.952623 -46.638121 7.234787 23.317666 -19.696570 -2.956610 0.000000 0.000000 0.000000 -6.624573 9.170511 3.470674 17.196345 58.356921 1.252394 -30.235500 26.647355 -5.712617 0.000000 0.000000 0.000000 
0.022642 0.939457 -0.185971 -1.062666 -22.108647 25.360838 16.242841 2.861472 -26.185744 -1.413242 0.229410 -1.886013 8.285968 14.666732 30.264409 0.000000 0.000000 0.000000 -13.636428 3.181951 -35.314111 8.540740 -0.320180 -0.866371 -5.571282 -20.636366 25.843175 0.000000 0.000000 0.000000 4.477075 -0.338469 37.859957 -2.306139 0.737091 -22.401227 -5.858935 5.803358 28.171582 23.050306 -10.489663 -29.081702 0.000000 0.000000 0.000000 21.049092 -24.267509 4.126374 -29.003874 -46.982813 7.281398 23.945515 -19.466657 -3.014841 0.000000 0.000000 0.000000 -6.512676 9.277305 3.498830 16.619339 58.538694 1.049574 -28.612586 24.135996 -4.754093 0.000000 0.000000 0.000000 
0.022526 0.941194 -0.186815 -0.979293 -21.406949 25.924262 16.031402 2.770394 -26.678354 -1.301045 0.218286 -2.156149 8.034535 14.485970 30.181756 0.000000 0.000000 0.000000 -13.721854 3.098502 -35.331702 8.369973 -0.314021 -1.435601 -5.452806 -20.390864 26.099042 0.000000 0.000000 0.000000 4.805635 -0.645240 37.008581 -2.742459 0.840613 -22.405548 -5.891713 5.819115 28.432754 23.430919 -10.754629 -28.848019 0.000000 0.000000 0.000000 20.515249 -24.092199 4.230790 -29.391197 -47.454110 7.474942 24.993094 -20.574401 -3.355474 0.000000 0.000000 0.000000 -6.496980 9.253877 3.490229 14.652372 58.407920 0.088133 -25.973253 21.674914 -3.747887 0.000000 0.000000 0.000000 
0.022011 0.942220 -0.187012 -0.916944 -20.759317 26.137987 15.944270 2.674336 -26.772056 -1.123195 0.198663 -2.305329 7.598253 14.067989 30.062877 0.000000 0.000000 0.000000 -13.708406 3.001081 -35.004492 8.042308 -0.308650 -1.819602 -5.354798 -20.125892 25.933846 0.000000 0.000000 0.000000 5.067008 -0.886531 36.322525 -2.969167 0.895638 -22.160906 -5.998041 5.907757 28.441722 23.587663 -11.004436 -28.270155 0.000000 0.000000 0.000000 19.141409 -24.184364 4.596181 -30.435566 -47.440945 7.690474 26.335074 -22.814594 -3.959293 0.000000 0.000000 0.000000 -7.278844 9.743566 3.624908 12.965591 58.330931 -0.663660 -23.637696 19.513061 -2.976733 0.000000 0.000000 0.000000 
0.021320 0.942044 -0.186560 -0.995445 -20.447055 26.199229 16.033709 2.645228 -26.718909 -0.880957 0.172418 -2.428932 7.303312 13.755783 29.840254 0.000000 0.000000 0.000000 -13.697303 2.949138 -34.789476 7.951374 -0.312622 -1.839684 -5.288056 -19.949920 25.774688 0.000000 0.000000 0.000000 5.186721 -0.973661 36.486904 -3.605988 1.037293 -22.044034 -5.838828 6.470236 28.575316 23.751914 -11.129284 -28.013327 0.000000 0.000000 0.000000 17.971434 -24.235932 4.938359 -31.398456 -47.000745 7.645611 27.177645 -26.479503 -4.833543 0.000000 0.000000 0.000000 -7.487507 10.236044 3.739074 10.526165 57.626020 -1.678683 -21.912109 17.894673 -2.451114 0.000000 0.000000 0.000000 
0.020624 0.942393 -0.185690 -0.964367 -20.276987 25.759006 16.122656 2.565393 -26.155292 -1.019352 0.195042 -2.705563 7.008482 13.435664 29.938525 0.000000 0.000000 0.000000 -13.499660 2.895016 -34.192615 7.998291 -0.324432 -1.574363 -5.333402 -19.896919 25.345195 0.000000 0.000000 0.000000 5.205338 -0.993561 36.661573 -3.866407 1.097000 -21.567996 -5.928688 7.079481 28.682064 24.141992 -11.406308 -27.761208 0.000000 0.000000 0.000000 16.431476 -24.081884 5.290822 -33.208756 -45.757450 7.605055 27.025895 -30.097925 -5.503067 0.000000 0.000000 0.000000 -7.319761 10.864106 3.891676 8.942496 56.958839 -2.255223 -21.083246 16.993528 -2.192458 0.000000 0.000000 0.000000 
0.020310 0.941925 -0.184536 -1.041180 -20.104445 25.583692 16.226749 2.571938 -26.106154 -0.952309 0.183996 -2.568214 6.827627 13.239011 29.678111 0.000000 0.000000 0.000000 -13.490121 2.853147 -33.943172 8.065847 -0.341265 -1.201722 -5.179626 -19.565638 24.656684 0.000000 0.000000 0.000000 5.279963 -1.058416 36.557864 -4.278928 1.191544 -21.281746 -5.853306 7.832266 28.796992 24.335720 -11.568687 -27.487415 0.000000 0.000000 0.000000 14.670267 -24.055227 5.720862 -34.984505 -43.962267 7.314602 25.669677 -33.190751 -5.737278 0.000000 0.000000 0.000000 -6.687993 11.380001 4.041117 8.961605 56.465107 -2.071398 -21.616300 17.780879 -2.359197 0.000000 0.000000 0.000000 
0.020462 0.942333 -0.183219 -0.935749 -19.630366 25.219209 15.940204 2.393660 -25.775028 -0.946844 0.186180 -2.691774 6.700241 13.152028 29.204177 0.000000 0.000000 0.000000 -13.562560 2.726202 -33.262898 8.145174 -0.353754 -1.182247 -5.523626 -19.896916 24.475913 0.000000 0.000000 0.000000 5.333717 -1.164621 36.171882 -4.436187 1.237797 -20.419003 -5.820869 8.407004 28.687113 24.185462 -11.400770 -27.647817 0.000000 0.000000 0.000000 12.580378 -23.931488 6.179888 -36.681760 -42.247289 6.980064 24.005398 -35.951708 -5.730994 0.000000 0.000000 0.000000 -6.260200 11.650173 4.118147 10.364729 56.127255 -1.267807 -22.082069 18.702725 -2.533279 0.000000 0.000000 0.000000 
0.020918 0.942312 -0.181700 -0.655220 -18.800003 24.706075 15.644276 2.172786 -25.382106 -0.972808 0.199981 -3.139278 6.329661 12.845756 29.006889 0.000000 0.000000 0.000000 -13.641774 2.545989 -32.390585 7.985337 -0.370705 -1.071613 -5.370578 -19.488543 24.154871 0.000000 0.000000 0.000000 5.420408 -1.316946 35.990345 -4.694876 1.317070 -20.083210 -5.646670 8.769268 28.798497 24.046435 -11.171090 -28.026639 0.000000 0.000000 0.000000 10.535891 -24.042434 6.660326 -38.460681 -40.335588 6.597341 21.389742 -38.761526 -5.347280 0.000000 0.000000 0.000000 -5.467912 11.894947 4.213694 12.552014 55.296325 -0.158775 -22.288360 20.486852 -2.817625 0.000000 0.000000 0.000000 
